<svg width="301" height="290" viewBox="0 0 301 290" fill="none" xmlns="http://www.w3.org/2000/svg">
<path fill-rule="evenodd" clip-rule="evenodd" d="M0.5896 145C0.5896 135.396 1.49226 126.002 3.21737 116.9C8.62846 118.905 14.4811 120 20.5896 120C48.2038 120 70.5896 97.6142 70.5896 70C70.5896 54.5187 63.5537 40.6807 52.505 31.5093C69.0888 17.164 88.8495 6.39259 110.59 0.392327V45H190.59V0.392327C218.09 7.98251 242.424 23.2073 261.166 43.6432L228.628 100H293.723C298.184 114.206 300.59 129.322 300.59 145C300.59 154.604 299.687 163.998 297.962 173.1C292.551 171.095 286.698 170 280.59 170C252.975 170 230.59 192.386 230.59 220C230.59 235.481 237.626 249.319 248.674 258.491C232.09 272.836 212.33 283.607 190.59 289.608V245H110.59V289.608C83.0917 282.018 58.7606 266.796 40.0192 246.363L72.923 189.372H7.26089C2.9246 175.349 0.5896 160.447 0.5896 145Z" fill="#68DF8A"/>
<circle cx="150.59" cy="145" r="10" fill="#569F3B"/>
</svg>
